# xmcd
#
# Track frame offsets: 
#        150
#        20320
#        35372
#        44832
#        66505
#        89562
#        104867
#        118327
#        138402
#        165650
#        178070
#        225645
#
# Disc length: 3260 seconds
#
# Revision: 6
# Processed by: cddbd v1.5.2PL0 Copyright (c) Steve Scherf et al.
# Submitted via: ExactAudioCopyFreeDBPlugin 1.0
#
DISCID=b30cba0c
DTITLE=Various Artist - Putumayo Presents New Orleans
DYEAR=2005
DGENRE=Rhythm and Blues
TTITLE0=Kermit Ruffins - Drop Me Off in New Orleans
TTITLE1=Doc Cheatham and Nicholas Payton - I Gotta Right to Sing the Blu
TTITLE1=es
TTITLE2=Louis Prima - Basin Street Blues
TTITLE3=Preservation Hall Hot 4 with Duke Dejan - Wrap Your Troubles i
TTITLE3=n Dreams
TTITLE4=Topsy Chapman And The Pros - Baby Won't You Please Come Home
TTITLE5=Kevin Clark And The Jazz Revelation - The Devil Done Got Me Bl
TTITLE5=ues
TTITLE6=Louis Armstrong - Tin Roof Blues
TTITLE7=Dr. John - Basin Street Blues
TTITLE8=Dr. Michael White - Give it Up (Gypsy Second Line)
TTITLE9=Deacon John - Going Back to New Orleans
TTITLE10=Gregg Stafford and Dr Michael White - Bye and Bye - Saints
TTITLE11=Data
EXTD=
EXTT0=
EXTT1=
EXTT2=
EXTT3=
EXTT4=
EXTT5=
EXTT6=
EXTT7=
EXTT8=
EXTT9=
EXTT10=
EXTT11=
PLAYORDER=
